<svg width="93" height="92" viewBox="0 0 93 92" fill="none" xmlns="http://www.w3.org/2000/svg">
<g clip-path="url(#clip0_3807_248)">
<path d="M86.6427 7.8811L2.41955 40.1224C2.36944 40.1415 2.32086 40.1644 2.27424 40.1907C1.59127 40.5734 -3.17498 43.4574 3.54572 46.0431L3.61474 46.0683L23.6697 52.4777C23.8227 52.5269 23.9847 52.5424 24.1444 52.5232C24.3041 52.5039 24.4576 52.4504 24.5942 52.3663L74.3365 21.6649C74.4585 21.5896 74.5943 21.5389 74.7361 21.5158C75.4282 21.4026 77.4208 21.1905 76.1602 22.7736C74.7343 24.5705 40.7584 54.6897 36.9876 58.0301C36.7701 58.2232 36.6356 58.4913 36.6116 58.7794L34.9659 78.1856C34.9657 78.3833 35.0121 78.5783 35.1013 78.7551C35.1905 78.932 35.3202 79.0858 35.48 79.2045C35.7067 79.3457 35.9733 79.4112 36.2406 79.3911C36.5078 79.3711 36.7614 79.2666 36.964 79.093L48.8796 68.558C49.0678 68.3916 49.308 68.2939 49.5601 68.2812C49.8122 68.2685 50.0611 68.3414 50.2655 68.4879L71.0543 83.4199L71.1215 83.4648C71.6246 83.7721 77.0593 86.9005 78.6287 79.9142L92.9783 12.4146C92.9983 12.2008 93.1926 9.85047 91.4943 8.46149C89.7106 7.00961 87.1858 7.74274 86.8061 7.8218C86.7501 7.83722 86.6955 7.85705 86.6427 7.8811Z" fill="#009EEB"/>
</g>
<defs>
<clipPath id="clip0_3807_248">
<rect width="93" height="92" fill="white"/>
</clipPath>
</defs>
</svg>
